<svg xmlns="http://www.w3.org/2000/svg" xmlns:xlink="http://www.w3.org/1999/xlink" width="756.693" height="702.7384" viewBox="0 0 756.693 702.7384"><defs><linearGradient id="a" x1="495.9856" y1="301.3552" x2="495.9856" y2="544.2167" gradientUnits="userSpaceOnUse"><stop offset="0" stop-color="#f8eeaf"/><stop offset="0.5" stop-color="#786545"/><stop offset="1" stop-color="#403629"/></linearGradient><linearGradient id="b" x1="495.9856" y1="545.4309" x2="495.9856" y2="297.4331" gradientUnits="userSpaceOnUse"><stop offset="0" stop-color="#f8eeaf"/><stop offset="1" stop-color="#786545"/></linearGradient><linearGradient id="c" x1="496.693" y1="421.5135" x2="496.693" y2="564.867" xlink:href="#a"/><linearGradient id="d" x1="496.693" y1="566.7481" x2="496.693" y2="419.3885" xlink:href="#b"/><linearGradient id="e" x1="496.4257" y1="118.4446" x2="496.4257" y2="813.567" gradientUnits="userSpaceOnUse"><stop offset="0" stop-color="#f8eeaf"/><stop offset="0.4" stop-color="#786545"/><stop offset="1" stop-color="#403629"/></linearGradient><linearGradient id="f" x1="496.4257" y1="817.4589" x2="496.4257" y2="114.7204" xlink:href="#b"/></defs><path d="M368.09,543.397c-6.2673-8.2064-12.8318-16.2063-18.7217-24.6752a100.7035,100.7035,0,0,1-14.4185-30.0844,66.0548,66.0548,0,0,1-2.559-24.0213c1.5027-17.4177,8.7765-32.01,22.1-43.4354,14.1647-12.1469,30.0944-21.7163,46.016-31.2905,19.0372-11.4478,38.3118-22.5277,56.9823-34.5458,7.7982-5.02,14.664-11.6826,21.3062-18.2531,7.8874-7.8021,13.778-17.0181,15.9-28.2358.4489-2.3737,1.3044-4.6705,2.1151-7.5.735,3.05,1.3581,5.7426,2.034,8.422,3.2211,12.77,11.0089,22.6217,20.1115,31.6836,14.0279,13.965,30.6731,24.2942,47.5662,34.234C583.746,385.83,601.39,395.2681,618.4157,405.72c12.9669,7.96,25.1293,17.1365,32.828,30.9021,3.6848,6.5885,6.5167,13.4355,7.2737,21.0094.4986,4.9873,1.307,9.985,1.2846,14.975-.0558,12.4776-3.7608,24.1464-9.4058,35.1068a127.1508,127.1508,0,0,1-28.7274,36.5036l-.939-.5078c.9008-1.7938,1.71-3.6409,2.7174-5.3728,6.2635-10.767,12.214-21.7334,15.7621-33.6976A24.1593,24.1593,0,0,0,639.128,492.3c-5.9779-23.0133-20.9629-39.1615-40.988-50.7329-10.3189-5.9628-21.584-10.2627-32.21-15.7263-11.828-6.0818-23.7895-12.04-35.0069-19.1369a149.3515,149.3515,0,0,1-33.3608-28.8669,9.02,9.02,0,0,0-1.5771-1.305c-12.0333,9.5465-23.6786,19.4028-35.9707,28.3729a261.6377,261.6377,0,0,1-44.0883,25.7793c-13.7661,6.4-26.9738,13.7618-38.6874,23.68-9.1553,7.752-16.5607,16.7306-21.0528,27.7757-2.9469,7.2457-3.0182,14.8779-1.0817,22.688,3.0968,12.4888,8.154,24.0911,14.2123,35.3445a6.8438,6.8438,0,0,1,.2457,2.5191Z" transform="translate(-118.0792 -114.7204)" stroke-miterlimit="10" stroke-width="2" fill="url(#a)" stroke="url(#b)"/><path d="M495.9435,421.5135c.72,1.616,1.4727,3.688,2.5218,5.5974,4.9541,9.0168,12.7046,15.2543,21.2807,20.4247,12.438,7.4987,25.2662,14.3568,37.6153,21.9937a274.0191,274.0191,0,0,1,24.6947,17.2554,39.96,39.96,0,0,1,13.9286,20.7618c4.5227,15.7451-1.6105,28.7386-10.8989,40.7027-4.4883,5.7811-9.6732,11.0214-14.5426,16.5066L569.27,563.93c.8376-1.78,1.5587-3.6275,2.5331-5.33,4.27-7.4589,7.4762-15.49,8.0351-23.9371.4026-6.0842-2.23-12.0406-6.4585-16.9551-8.3857-9.7466-19.08-16.2415-30.5221-21.5694-10.84-5.0474-22.0325-9.4886-31.2319-17.3406-4.601-3.9272-8.5338-8.6423-12.7189-13.0484-1.19-1.2527-2.2041-2.6721-2.7916-3.3928-6.9675,6.5765-13.7183,13.2118-20.7623,19.52-6.4382,5.7653-14.15,9.3549-22.1178,12.6828-14.69,6.1352-28.6615,13.5806-38.3141,26.9555-4.8,6.6519-4.011,14.1716-2.1936,21.4064,1.7416,6.9339,4.4753,13.618,6.7386,20.4233.1035.3112-.1317.735-.296,1.5223a76.2172,76.2172,0,0,1-18.2667-23.72,46.3767,46.3767,0,0,1-4.9809-18.7015c-.5008-10.9723,3.586-19.9609,10.27-28.2638,10.7985-13.4138,25.2187-21.7634,40.2185-29.3559,15.3193-7.7542,29.6949-16.87,41.0479-29.9566C490.7677,431.0546,492.9676,426.2775,495.9435,421.5135Z" transform="translate(-118.0792 -114.7204)" stroke-miterlimit="10" stroke-width="2" fill="url(#c)" stroke="url(#d)"/><path d="M174.5361,636.9076c5.7,1.1078,10.3423,2.3812,15.0646,2.8467,8.482.8363,17.0062,1.5238,25.5228,1.6632,12.9958.2126,26.0365-.74,38.9909-.0082,14.5864.8244,28.8618,4.0258,41.4934,11.8816,3.7391,2.3255,6.9165.785,10.1118.1117A84.34,84.34,0,0,0,319.409,648.8c1.5729-.6287,2.7724-2.1916,4.9033-3.9592-10.515-4.0869-19.97-7.8822-29.5175-11.4275-5.7015-2.1172-11.5451-3.8533-17.3344-5.7311a10.1889,10.1889,0,0,0-2.26-.4157c-7.0715-.6068-14.1862-.8916-21.2071-1.86-8.1071-1.1175-16.1524-2.7281-24.1867-4.316-7.6322-1.5084-15.3095-2.9224-22.8009-4.9821-15.2713-4.1989-29.9377-9.9217-43.6016-18.1213-12.8087-7.6865-23.7888-17.1454-31.7433-29.9632-5.1384-8.28-8.9513-17.0189-10.3532-26.6935-.9192-6.3427-2.482-12.7589-2.194-19.0708a231.4073,231.4073,0,0,1,3.5544-28.57,183.58,183.58,0,0,1,4.9807-19.6082c1.54-5.3342,3.6082-10.5143,5.2061-15.8336,2.045-6.8076,4.0328-13.6426,5.7123-20.5467,1.6625-6.8343,3.1273-13.734,4.2587-20.6735a82.8069,82.8069,0,0,0,.6936-12.4474c.0628-6.238.0938-12.4869-.194-18.7157-.7278-15.7531-5.2949-30.1908-15.2163-42.6956a11.57,11.57,0,0,1-.7646-1.5311,10.5382,10.5382,0,0,1,2.6479.3448c9.6333,4.3818,19.0383,9.3687,28.9341,13.0326,6.1332,2.2707,12.9989,2.5759,19.5444,3.714,2.7743.4824,5.5969,1.3094,8.3514,1.1551,6.0272-.3376,12.2588-.3842,17.9863-2.0214,12.0424-3.4423,23.7464-8.0491,35.7162-11.77,10.9171-3.3934,22.0054-6.2349,33.0045-9.3676a5.0417,5.0417,0,0,0,2.1991-1.3017c11.994-12.7331,23.7307-25.717,35.9757-38.2028a265.896,265.896,0,0,1,44.231-36.2027c11.2164-7.345,23.44-13.1722,35.3169-19.4827,13.3231-7.0789,26.2484-14.75,37.83-24.4849,7.0214-5.9018,14.3663-11.521,20.74-18.0707,15.68-16.1132,29.2262-33.921,38.0107-54.7835,3.5165-8.3511,5.4386-17.3735,7.9839-25.7529.9525,3.7514,2.2809,8.1769,3.18,12.6879,2.0816,10.44,6.6027,19.9428,11.6989,29.0754a172.0919,172.0919,0,0,0,33.15,41.9225A213.8,213.8,0,0,0,587.28,233.78c9.4382,5.1511,19.0706,9.9891,28.228,15.6a291.1943,291.1943,0,0,1,27.729,18.7957c15.4046,12.0827,30.5619,24.5206,45.27,37.4389,12.0954,10.6235,23.3407,22.2116,35.1044,33.2207a9.2629,9.2629,0,0,0,5.5786,2.3652,112.73,112.73,0,0,1,31.5454,4.8081c12.0429,3.8255,23.8736,8.345,35.9914,11.8985a45.2149,45.2149,0,0,0,22.0487,1.3849c7.6843-1.54,15.2528-3.0607,22.1382-6.7708,7.9742-4.2966,15.715-9.0262,23.56-13.5631.3042-.1759.6376-.3013,1.871-.8759-1.4147,3.3-2.46,5.8868-3.6216,8.42-4.4611,9.7278-7.2106,19.92-9.4862,30.385a138.47,138.47,0,0,0-2.4626,41.6336,143.069,143.069,0,0,0,5.7528,28.4158c3.4365,11.4686,8.3547,22.4851,12.15,33.858a93.2246,93.2246,0,0,1,3.5967,16.8111,144.3784,144.3784,0,0,1,1.4984,19.285c.0328,17.9957-5.197,34.4733-14.7949,49.7088-10.3481,16.4264-24.6282,28.3942-41.8529,36.7379a93.8768,93.8768,0,0,1-27.1414,8.4947c-9.7138,1.4467-19.29,3.8169-28.9286,5.7713-8.2725,1.6775-16.6555,2.9361-24.7969,5.1036-11.6374,3.0983-23.1021,6.8472-34.6335,10.3411-2.3027.6977-4.5743,1.498-6.9829,2.2915,1.95,4.578,6.1467,6.1086,10.1212,7.1442,7.0427,1.8353,13.9287,2.1842,20.9941-1.5853,5.5959-2.9855,12.0945-4.4972,18.3585-5.9422a56.0658,56.0658,0,0,1,14.8846-1.4468c5.0561.222,10.0556,1.6961,15.0853,2.5912,1.0165.1809,2.0569.231,3.0874.3284,5.1153.4833,10.2251,1.2451,15.3482,1.35,3.8358.0787,7.692-.6632,11.5335-1.0895,4.9473-.549,9.8891-1.1476,15.9093-1.8506-1.793,3.02-2.9963,5.5377-4.6374,7.7273-8.13,10.848-17.3354,20.48-30.2358,25.7469-9.3333,3.8105-18.8379,5.4923-28.8573,2.8927-5.1872-1.3459-10.5031-2.1875-15.74-3.3489a62.2562,62.2562,0,0,1-25.1856-11.58c-6.1846-4.8978-10.9475-2.5213-16.002-.0376-6.6109,3.2483-12.7744,7.3973-19.2538,10.9325a5.1429,5.1429,0,0,1-4.23-.0076c-6.4319-3.5236-12.68-7.381-19.0984-10.9314a4.268,4.268,0,0,0-3.539.2424c-21.3266,12.3408-42.4248,25.082-60.6162,41.8916-4.8918,4.52-8.7524,5.0125-14.9173,2.2805-9.1883-4.0717-19.0179-6.8162-28.7439-9.5155-7.47-2.073-15.1952-3.2305-22.8176-4.7418-2.5232-.5-3.9447.317-5.5336,2.8-4.6005,7.1895-9.5288,14.2872-17.598,18.24-.3894.1907-.5542.84-.2539.3542,2.9664,3.45,5.6767,6.7013,8.4924,9.8585a43.8352,43.8352,0,0,1,11.1217,36.8314c-1.3511,9.3125-6.4926,17.3755-11.0663,25.54-4.6563,8.3119-9.0212,16.7969-13.2125,25.3536-1.2181,2.487-1.4024,5.48-2.5381,8.1991-1.9164-16.037-10.7309-29.021-17.5561-42.8377-3.97-8.0374-7.349-16.3511-6.78-25.6149a48.8063,48.8063,0,0,1,11.706-29.5318c5.7267-6.7195,5.82-4.8066-1.3349-10.6172A93.6993,93.6993,0,0,0,456.64,690.437a91.7925,91.7925,0,0,0-14.6726-3.9915,48.2793,48.2793,0,0,0-11.4131-1.308A52.3087,52.3087,0,0,0,400.51,695.8408c-2.1026,1.5668-3.0651,2.0706-5.1187-.84-6.294-8.9224-15.2634-15.0048-24.1975-21.1249-5.5872-3.8274-11.2506-5.957-17.8883-4.36-11.4337,2.7514-22.7283,5.9469-32.8717,12.3066-6.2891-6.7253-12.6709-13.1647-21.4944-16.1015a18.3873,18.3873,0,0,0-8.6707-.7787c-9.3009,1.6595-18.4992,3.886-27.765,5.7549a80.8551,80.8551,0,0,1-10.6679,1.4962c-11.4853.7507-22.9972,2.0263-34.4716,1.7883-16.2364-.3369-28.2132-8.8626-36.4716-22.4889C178.2617,647.1516,176.7658,642.1229,174.5361,636.9076ZM729.7044,436.2713a64.2005,64.2005,0,0,0,27.35-2.6694c8.2464-2.7182,16.2913-6.048,23.7225-8.845-2.27,5.9747-4.885,12.3182-7.0939,18.8-3.0483,8.945-3.3781,18.31-2.5362,27.5573.8713,9.5684,2.792,19.04,4.2105,28.56,1.1766,7.8961,2.2673,15.8048,3.4424,23.7011.5493,3.6914.9674,7.4264,1.8655,11.037a43.7536,43.7536,0,0,1-.9137,25.1749c-4.7046,13.5634-14.3909,23.1914-26.7331,30.1435a98.5037,98.5037,0,0,1-32.43,11.2843,60.41,60.41,0,0,1-24.0675-.5215c-2.494-.5777-4.7352-2.2474-7.2588-3.5.7026-.7322.8546-1.035,1.0307-1.05a20.83,20.83,0,0,1,2.7085-.0931c11.6741.5522,23.1681-.3489,34.16-4.644,12.872-5.0295,21.9632-13.9854,26.39-27.1157,1.7786-5.2752,1.8467-11.129,3.64-16.3969,2.4312-7.14-.8467-13.7336-.9335-20.595-.0317-2.5134-.8877-5.0394-1.53-7.5175-1.3717-5.289-2.9228-10.5319-4.2629-15.8285-1.2823-5.0679-2.27-10.2116-3.6045-15.2647a43.9824,43.9824,0,0,1-.0877-21.0165c.7394-3.3641,1.3844-6.7489,2.1867-10.6871-10.9525,4.53-21.4522,6.1534-32.3077,4.2637-4.768,14.715-31.9491,47.2208-39.2913,46.9655,2.0045-2.8985,4.0249-5.7131,5.9352-8.6005,9.4812-14.3306,18.1792-29.096,22.8164-45.7931a51.6291,51.6291,0,0,0,1.8141-14.8827c-.1113-4.5354-1.3425-9.1266-2.6327-13.5314-2.3668-8.08-4.5138-16.3152-7.8665-24-8.556-19.61-23.2216-34.0566-40.7888-45.7435-12.9139-8.5912-26.8969-14.9576-41.2823-20.7842-12.4832-5.0562-24.4205-11.58-36.2645-18.0666a238.2307,238.2307,0,0,1-50.0048-37.0918c-11.0067-10.5175-20.9818-22.1239-31.25-33.3971-1.7827-1.9573-2.505-1.76-3.9671.1038-3.9516,5.0371-7.8,10.1954-12.1677,14.8579A330.0372,330.0372,0,0,1,439.16,299.647c-20.5876,15.469-42.9447,27.5244-66.6932,37.2163A174.2136,174.2136,0,0,0,329.59,361.8449c-21.73,17.2856-36.5482,39.1921-42.2333,66.4777a57.2749,57.2749,0,0,0,3.0641,33.8753,215.2988,215.2988,0,0,0,20.6515,38.9328c1.4888,2.1815,2.7524,4.5166,4.12,6.7808l-.945.5923c-17.6655-11.822-30.2148-27.6259-36.8487-48.0168-.9429-2.8985-2.1705-3.89-5.62-2.867a41.1662,41.1662,0,0,1-13.9284,1.8531c-4.2978-.2636-8.49-2.2484-12.99-3.5512,0,1.1854.0185,2.561-.0031,3.9359-.1407,8.9685.2285,17.9842-.5849,26.8917-.79,8.6513-2.7106,17.2073-4.2994,25.7747a139.0524,139.0524,0,0,1-3.562,16.1087,66.3455,66.3455,0,0,0-2.2483,27.5382,32.1837,32.1837,0,0,0,3.9248,11.43c8.9729,16.4178,24.4261,22.54,41.7328,25.1251,7.1137,1.0625,14.3737,1.1409,21.5641,1.7056.39.0307.7524.4207,1.1276.6434l.0371,1.0732c-5.2112.9537-10.39,2.4327-15.64,2.7525a105.0073,105.0073,0,0,1-33.095-2.7224c-9.5728-2.4861-18.5189-6.03-26.2049-12.2055-14.2039-11.4129-19.6145-26.5362-17.3654-44.362,1.3144-10.4176,3.38-20.7388,5.0216-31.117,1.5228-9.6283,3.6759-19.2359,4.18-28.924a186.1013,186.1013,0,0,0-1.2734-29.4267c-.6436-5.9871-2.768-11.84-4.4912-17.6752a73.1231,73.1231,0,0,0-3.4117-8.0485l.6053-.8252c16.1251,7.651,32.6888,13.1746,50.5849,11.5122-1.9916-8.7142-4.583-17.038-5.646-25.5525s-.5978-17.2193-.8131-26.2867c-2.0658.62-4.21,1.34-6.3942,1.9035-6.6694,1.7212-13.312,3.5819-20.0446,5.0139-7.7349,1.6452-15.5077,3.3044-23.3506,4.1986-8.7867,1.0017-17.4854-.3956-25.9488-3.0094-1.4373-.4438-2.8553-.95-4.2792-1.4264,1.4209,7.9735,2.9357,15.38,4.0252,22.8483a54.28,54.28,0,0,1-4.9442,31.117,217.7716,217.7716,0,0,0-14.8658,42.6218,182.9863,182.9863,0,0,0-4.6024,29.2838c-.6924,10.6513-1.7464,21.4112.9693,32.1061a57.5364,57.5364,0,0,0,9.0241,19.879c11.3466,15.72,27.7389,24.2431,45.1261,31.1669,7.8638,3.1314,15.9714,5.6709,24.0334,8.2783q11.98,3.8745,24.0968,7.324c8.1983,2.3369,16.5221,4.242,24.6882,6.6805,7.3969,2.2087,14.7106,4.73,21.96,7.3907,7.6862,2.8206,15.2069,6.0924,22.8916,8.9176,3.7285,1.3707,6.85,4.9958,11.3966,3.5425,3.4965-1.1173,6.828-2.8873,10.3865-3.6454,7.1059-1.5138,14.2915-3.21,21.4955-3.4851,3.9281-.15,8.9116.53,11.6719,5.5224-11.7594.9862-23.7255-.1063-33.4784,8.3217,6.7647,3.935,12.8316,7.5345,18.986,10.9777,1.0745.6012,2.7575,1.1206,3.7529.7048,12.5542-5.246,25.9205-6.063,39.1846-6.9282,7.0352-.4588,14.178.5123,21.2582,1.0293,6.16.45,12.3109,1.0851,18.4466,1.8025a76.7734,76.7734,0,0,1,9.8828,1.7337c9.3684,2.3675,18.7672,4.6641,28.0111,7.4609,8.9462,2.7068,17.6947,6.0615,26.5751,8.9952,2.3394.7729,5.2778,2.0869,7.1756,1.3017,2.9977-1.24,5.5856-3.82,7.8924-6.2624,1.6243-1.72,2.4942-4.1518,3.8953-6.6063-19.9438-1.4795-38.1-5.4954-52.8938-18.8937a26.7078,26.7078,0,0,1,6.1859,1.0811c7.3321,1.7132,14.7171,3.2178,22.0027,5.1077,8.0263,2.082,16.1426,3.4772,24.4062,2.9546a16.2674,16.2674,0,0,0,7.885-3.1041c2.5531-1.8134,4.4666-4.5274,6.6582-6.85l1.2878.3094c.4262,3.4746,1.1961,6.95,1.1832,10.4234-.0132,3.553,1.6675,5.0152,4.7962,5.1408,12.6411.5079,25.1568.701,37.6684-2.6057a175.03,175.03,0,0,0,32.3291-12.0411c-6.7339-7.0737-15.6492-7.4052-24.8907-9.3163,10.2256-3.6913,19.4021-2.6438,28.716-.0642,2.2881.6337,4.2555,3.7286,7.2261,1.4364,4.0559-3.13,8.1919-6.1555,12.6371-9.4829-15.9688-9.8083-33.8158-12.6749-51.0343-16.11-.7365-4.8452-1.3871-9.1247-2.1225-13.9628-6.0779,4.4706-11.5877,8.5178-17.0909,12.5738-2.4042,1.7721-4.6732,5.2879-7.4917.3873-.2686-.467-1.4014-.5326-2.1512-.6119a35.2537,35.2537,0,0,0-17.0048,2.4924c-1.8582.7424-3.7027,1.5192-5.2282,2.1466,7.8145,2.69,15.5555,4.7839,22.7877,8.0158,6.4827,2.8969,9.2623,7.447,6.6285,12.4651a47.9886,47.9886,0,0,0-25.7272-10.554,70.5779,70.5779,0,0,0-21.09,1.2156c-3.2374.6257-6.0263,4.1634-8.743,6.679-1.7334,1.6051-3.0694,3.64-5.8,2.3614-8.0773-3.7823-15.9429-8.1114-24.259-11.2532-4.9312-1.8629-10.5567-1.8877-16.6149-2.8584-1.978-6.0114-7.663-9.6181-14.6038-10.4636a87.071,87.071,0,0,0-19.8337.025c-4.6392.5072-9.4409,2.1433-12.2432,7.37,7.9929-.0571,15.3887-.27,22.43,3.2264,6.4084,3.1826,12.9026,12.6655,11.1309,17.1825-15.04-13.5029-33.2248-15.4521-52.4049-13.8407.0615-1.0056-.0781-1.606.1477-1.9937a41.6353,41.6353,0,0,1,26.7255-19.98,43.911,43.911,0,0,1,22.629-.2511c7.2693,1.9515,15.0192,2.5375,21.9349,5.2893,12.8044,5.0951,25.1541,11.3326,36.8971,16.7285,3.7756-3.8988,7.3731-8.9613,12.1693-12.3039,12.4814-8.6987,27.1592-10.2842,41.8757-10.9142,7.991-.3421,7.9985-.0746,10.8264-7.6089a11.707,11.707,0,0,0,.9122-2.0845c.6548-4.2582,3.8073-8.4559.6667-12.8288a58.5653,58.5653,0,0,0-4.6992-5.1669c1.1181-.497,1.95-.83,2.75-1.2279,6.0275-2.9988,10.19-1.1545,11.6152,5.2163.5843,2.612,1.0287,5.2554,1.6123,8.2754,4.84-1.2445,9.9039-3.0147,13.8574,1.94-4.1938,4.9993-5.4463,7.8016-4.5931,12.2485.2992,1.56,1.7153,3.85,2.9859,4.1259,8.38,1.8167,16.8865,3.0378,25.2975,4.7241a59.3345,59.3345,0,0,1,19.8579,8.2772,6.4862,6.4862,0,0,0,5.0145.3137,9.93,9.93,0,0,0,4.3309-3.5184c5.315-7.5212,10.4389-15.1776,15.5213-22.6277,4.4407,4.6349-.7574,18.5387-13.932,34.448,6.4566,2.757,12.7713,5.5647,19.1944,8.0975a6.1588,6.1588,0,0,0,4.2684-.3135c7.6637-3.38,14.9991-7.7089,22.9136-10.27,11.7463-3.801,23.8892-6.3727,35.8526-9.508,9.82-2.5735,19.6428-5.1417,29.4326-7.8278,13.4692-3.6957,26.1674-9.0658,37.7385-17.0566,15.0231-10.3746,22.87-24.8041,23.5029-42.7678.2592-7.3552-1.6489-14.7954-2.6615-22.1845q-1.6215-11.8315-3.4279-23.6374c-.4636-3.0525-1.02-6.1-1.7279-9.1044-1.8711-7.9412-3.74-15.8858-5.8129-23.7757q-3.2486-12.3652-6.9014-24.623c-2.0568-6.87-4.0952-13.6227-4.2291-20.9673-.1572-8.6365,1.3573-16.9114,3.4365-25.1681.3677-1.46,1.0015-2.8527,1.7555-4.9539-27.9613,8.9432-53.8847,2.8062-80.2006-6.4239C737.9917,401.6445,735.2964,418.9337,729.7044,436.2713ZM512.9561,683.7087a23.2453,23.2453,0,0,0-3.6468-1.7413q-15.25-4.1781-30.537-8.2194c-11.2924-3.0045-22.4957-6.45-33.9222-8.8114a233.1131,233.1131,0,0,0-28.2462-3.6062c-10.3433-.8417-20.52,1.0162-30.5328,3.51-2.8159.7014-5.4612,2.0873-9.0956,3.5177A49.8278,49.8278,0,0,1,398.905,683.37c1.6535,1.9552,2.8141,1.6588,4.8613.8667,5.2635-2.0364,10.56-4.4276,16.0614-5.2907a77.1186,77.1186,0,0,1,18.6791-.3259c5.9148.5311,12.14,1.3028,17.4923,3.6486a331.1674,331.1674,0,0,1,34.8254,17.5768c4.082,2.3979,6.4564,1.8709,9.771-.11C506.7465,696.06,510.5122,690.5939,512.9561,683.7087Zm20.5037-3.8254c7.483,1.7216,14.4719,3.224,21.4043,4.9531,7.5185,1.8752,14.9608,4.057,22.4863,5.9012,2.4686.605,6.1885,1.7929,7.4743.6391,10.6457-9.5524,22.9424-16.5541,35.1392-23.7224,8.481-4.9845,17.1042-9.7271,25.71-14.6041a75.0718,75.0718,0,0,0-6.4982-5.0488c-2.0607-1.2758-4.0807-3.2316-6.983-1.6183-7.9773,4.4345-15.8247,9.1631-24.0688,13.041-9.2323,4.3427-18.7864,7.9074-29.4141,6.9827-10.0165-.8716-20.0619-1.4591-30.1063-1.9116a6.571,6.571,0,0,0-4.6355,2.0182C540.3788,670.6679,537.145,675.13,533.46,679.8833ZM498.2773,786.829a4.8488,4.8488,0,0,0,1.3715-.6,4.0557,4.0557,0,0,0,1.01-1.4253c3.59-8.4408,7.6687-16.7233,10.524-25.4075,1.633-4.9667,2.6466-10.9089,1.51-15.8532-2.3383-10.1685-9.0632-18.197-16.0552-25.8124-1.4617-1.592-2.515-1.7869-3.9617-.1122-2.763,3.1988-6.0265,6.0476-8.344,9.5326a30.3352,30.3352,0,0,0-3.3721,28.4731A120.31,120.31,0,0,0,498.2773,786.829ZM283.6048,658.8216l.1252-1.9318c-2.1767-1.5958-4.1712-3.5722-6.5636-4.7174-7.7954-3.7318-16.283-4.21-24.7357-4.4755-2.2621-.0709-4.5471.9429-6.8248.958-14.4155.0951-28.832.0394-43.2481.0659-1.4294.0026-2.8585.2232-4.7482.3811,1.2366,2.0232,2.0388,3.4132,2.9141,4.7555,6.3973,9.81,16.4717,12.8238,27.1621,13.7016a105.5732,105.5732,0,0,0,34.9422-2.8079C269.6649,662.949,276.6155,660.81,283.6048,658.8216Zm513.6122-9.65c-8.1962-1.1086-15.8681-1.9554-23.4674-3.2338-6.1607-1.0365-12.2266-2.6275-18.351-3.8926-1.6051-.3315-3.3774-.8157-4.8923-.46-7.6512,1.7955-15.2428,3.8453-23.8851,6.0712A40.4054,40.4054,0,0,0,731,651.4093c12.1773,7.3348,25.133,12.0086,39.598,11.9227C781.8022,663.2655,791.7714,661.2074,797.217,649.1712ZM348.8079,661.18l.6195-1.0691c-3.2551-2.15-6.5595-4.23-9.7528-6.4676-3.91-2.74-7.6425-3.3666-11.4936.1473a8.3507,8.3507,0,0,1-3.3729,1.5091c-4.44,1.2312-8.9091,2.36-13.7664,3.632,4.9827,3.7571,9.6317,7.0829,14.0521,10.6889,1.6505,1.3463,2.4133,1.1915,4.1065-.038A43.5547,43.5547,0,0,1,348.8079,661.18Zm348.9827-12.7666c-3.4839-1.3794-6.0024-2.5794-8.6429-3.3738-3.8351-1.1539-7.5644-3.8485-11.7968-1.8617-4.2407,1.9907-8.32,4.3246-12.8193,6.6915,2.0369,1.2316,3.7091,2.6265,5.634,3.3318,5.0144,1.8375,9.4631,7.0194,15.6737,2.0659C689.257,652.5411,693.4846,650.8306,697.7906,648.4133Zm-53.9915-9.3118a101.5675,101.5675,0,0,0,8.4955,6.2482,4.9191,4.9191,0,0,0,4.2119-.0936,52.6442,52.6442,0,0,0,6.5143-5.0231c5.071-4.15,5.13-4.3668-.99-6.4037-3.0317-1.0091-6.6784-2.1552-9.483-1.328C649.4752,633.4077,647.052,636.5177,643.7991,639.1015Zm-238.5633-7.0829c-4.0761-8.7937-11.4843-13.4117-20.46-15.8158-4.9721-1.3318-10.0614-2.2259-15.6248-3.4315,4.9669-5.0765,11.0178-6.5281,17.0227-7.1682,6.2176-.6628,12.5607-.1474,18.3522-.1474-5.2006-5.8366-16.8288-7.2316-25.6082-4.3827-7.4158,2.4065-13.749,6.7594-19.3679,12.0713-3.2762,3.0972-6.2067,6.56-9.2928,9.8583l.7656,1.12a78.276,78.276,0,0,0,8.7583-.6359c11.6207-2.1145,22.8525-2.06,33.2439,4.6567,3.8653,2.4983,7.9317,4.6855,12.6087,7.426C405.4483,633.7517,405.5852,632.7724,405.2358,632.0186Zm-43.8714-49.9571c-2.5771,0-5.3412-.6043-7.7162.1013-12.4047,3.6855-23.8174,15.4494-21.5138,30.8377.1748,1.1674,1.7557,2.5505,2.9914,3.0183a6.2023,6.2023,0,0,0,4.57-.05c2.15-1.136,5.8393-.0161,6.6016-3.8089-5.3425-1.363-7.7744-4.9193-5.8417-9.2971,1.5367-3.4807,4-6.5942,6.331-9.658.73-.959,3.0644-2.01,3.4586-1.66a6.7158,6.7158,0,0,1,2.132,4.0563,34.35,34.35,0,0,1-.4555,7.3343,27.8128,27.8128,0,0,1-1.3855,4.32C360.2615,600.7872,364.32,590.8164,361.3644,582.0615Zm-35.141,5.6623c1.01-1.4687.8-4.2782.1434-6.1266-.2369-.6666-3.57-.831-5.1835-.2968-4.62,1.53-3.7522,5.899-4.71,9.6319C320.9494,591.962,324.22,590.6367,326.2234,587.7238Z" transform="translate(-118.0792 -114.7204)" stroke-miterlimit="10" stroke-width="2" fill="url(#e)" stroke="url(#f)"/></svg>